<?xml version="1.0" encoding="UTF-8" standalone="no"?>
<!-- Created with Inkscape (http://www.inkscape.org/) -->

<svg
   width="250mm"
   height="250mm"
   viewBox="0 0 250 250"
   version="1.1"
   id="svg1"
   xml:space="preserve"
   inkscape:version="1.4.2 (f4327f4, 2025-05-13)"
   sodipodi:docname="icon2.svg"
   xmlns:inkscape="http://www.inkscape.org/namespaces/inkscape"
   xmlns:sodipodi="http://sodipodi.sourceforge.net/DTD/sodipodi-0.dtd"
   xmlns="http://www.w3.org/2000/svg"
   xmlns:svg="http://www.w3.org/2000/svg"><sodipodi:namedview
     id="namedview1"
     pagecolor="#ffffff"
     bordercolor="#999999"
     borderopacity="1"
     inkscape:showpageshadow="2"
     inkscape:pageopacity="0"
     inkscape:pagecheckerboard="0"
     inkscape:deskcolor="#d1d1d1"
     inkscape:document-units="mm"
     showgrid="true"
     inkscape:zoom="0.80844907"
     inkscape:cx="-205.33143"
     inkscape:cy="332.73586"
     inkscape:window-width="3840"
     inkscape:window-height="2054"
     inkscape:window-x="2869"
     inkscape:window-y="-11"
     inkscape:window-maximized="1"
     inkscape:current-layer="layer1"><inkscape:grid
       id="grid4"
       units="mm"
       originx="222.39151"
       originy="-25.455843"
       spacingx="0.99999998"
       spacingy="1"
       empcolor="#0099e5"
       empopacity="0.30196078"
       color="#0099e5"
       opacity="0.14901961"
       empspacing="5"
       enabled="true"
       visible="true" /></sodipodi:namedview><defs
     id="defs1" /><g
     inkscape:label="Layer 1"
     inkscape:groupmode="layer"
     id="layer1"
     transform="translate(222.39151,-25.455843)"><rect
       style="fill:#800000;stroke-width:0.264583"
       id="rect4"
       width="250"
       height="250"
       x="-222.39151"
       y="25.455843"
       rx="50"
       ry="50"
       inkscape:export-filename="FOCUSQUARE2.png"
       inkscape:export-xdpi="52.019199"
       inkscape:export-ydpi="52.019199" /><path
       style="fill:#ffffff;stroke-width:0.264583"
       d="m -160.99974,57.524025 c -9.02525,72.433455 50.44886,77.524625 50.21744,90.715375 -0.23138,13.18873 -60.92919,20.90458 -49.7546,91.64104 1.22668,7.76504 125.182071,7.58391 126.122131,1.61992 11.49217,-72.90972 -51.10451,-79.14614 -51.14311,-92.79812 -0.0393,-13.88688 61.30852,-16.40381 50.91169,-90.021132 -0.76744,-5.434058 -125.196461,-6.248254 -126.353551,-1.157083 z"
       id="path1"
       sodipodi:nodetypes="csssssc" /><path
       style="fill:#800000;stroke-width:0.264583"
       d="m -144.33772,99.641874 c 8.331,20.827516 27.29385,28.653086 39.50593,34.249686 3.43921,1.57614 3.47839,54.80242 -0.0421,57.03842 -19.72998,12.5313 -24.65314,17.7092 -43.3979,39.69379 31.00985,3.93408 70.500293,4.73823 102.435806,0.80415 -18.050507,-21.52176 -27.067359,-29.28025 -44.45428,-40.41613 -2.897005,-1.85546 -3.921181,-55.59517 -0.01163,-57.35164 17.640113,-7.92531 29.042805,-13.88501 39.687977,-33.55544 -29.389931,3.00842 -64.796683,3.00842 -93.723783,-0.462836 z"
       id="path4"
       sodipodi:nodetypes="cssccssccc" /></g></svg>
